<?xml version="1.0" standalone="no"?>
<!DOCTYPE svg PUBLIC "-//W3C//DTD SVG 1.1//EN" "http://www.w3.org/Graphics/SVG/1.1/DTD/svg11.dtd">
<svg xmlns="http://www.w3.org/2000/svg" xmlns:xlink="http://www.w3.org/1999/xlink" width="375" zoomAndPan="magnify" viewBox="0 0 375 374.999991" height="375" preserveAspectRatio="xMidYMid meet" version="1.0"><defs><g/><clipPath id="id1"><path d="M 219 146 L 227.402344 146 L 227.402344 155 L 219 155 Z M 219 146 " clip-rule="nonzero"/></clipPath></defs><path fill="rgb(32.159424%, 44.309998%, 100%)" d="M 198.136719 137.28125 C 196.640625 132.460938 191.460938 129.808594 186.644531 131.359375 C 184.085938 132.183594 182.152344 134.027344 181.140625 136.289062 C 180.15625 138.503906 178.21875 140.164062 175.894531 140.910156 L 175.648438 140.992188 C 173.03125 141.835938 170.148438 141.414062 167.9375 139.789062 C 165.046875 137.660156 161.210938 136.882812 157.519531 138.011719 C 151.40625 139.875 147.902344 146.363281 149.734375 152.445312 C 151.625 158.71875 158.335938 162.1875 164.578125 160.175781 C 168.28125 158.980469 170.972656 156.132812 172.09375 152.71875 C 172.960938 150.082031 175 147.988281 177.660156 147.132812 L 177.933594 147.042969 C 180.242188 146.300781 182.777344 146.511719 184.875 147.726562 C 187.085938 149.003906 189.824219 149.355469 192.441406 148.449219 C 197.03125 146.867188 199.566406 141.890625 198.136719 137.28125 " fill-opacity="1" fill-rule="nonzero"/><path fill="rgb(50.588989%, 79.998779%, 16.468811%)" d="M 216.273438 119.511719 C 210.066406 117.972656 203.695312 121.738281 202.09375 127.882812 C 201.125 131.59375 202.082031 135.359375 204.355469 138.128906 C 206.089844 140.246094 206.644531 143.085938 205.910156 145.71875 L 205.84375 145.96875 C 205.195312 148.300781 203.613281 150.296875 201.425781 151.375 C 199.195312 152.476562 197.425781 154.480469 196.710938 157.050781 C 195.367188 161.898438 198.273438 166.910156 203.191406 168.179688 C 207.898438 169.390625 212.792969 166.652344 214.179688 162.03125 C 214.972656 159.394531 214.492188 156.695312 213.109375 154.5625 C 211.792969 152.539062 211.464844 150.03125 212.109375 147.710938 L 212.183594 147.433594 C 212.929688 144.761719 214.945312 142.644531 217.558594 141.667969 C 220.945312 140.402344 223.691406 137.605469 224.726562 133.878906 C 226.46875 127.601562 222.675781 121.101562 216.273438 119.511719 " fill-opacity="1" fill-rule="nonzero"/><path fill="rgb(98.039246%, 71.369934%, 5.099487%)" d="M 208.910156 180.042969 C 206.820312 176.824219 203.378906 174.964844 199.785156 174.746094 C 197.042969 174.578125 194.5625 173.054688 193.109375 170.738281 L 192.96875 170.519531 C 191.679688 168.464844 191.273438 165.953125 191.957031 163.628906 C 192.652344 161.253906 192.367188 158.609375 190.945312 156.34375 C 188.269531 152.074219 182.585938 150.796875 178.3125 153.527344 C 174.222656 156.140625 172.9375 161.566406 175.417969 165.710938 C 176.835938 168.078125 179.160156 169.558594 181.675781 169.992188 C 184.070312 170.40625 186.148438 171.863281 187.433594 173.910156 L 187.585938 174.152344 C 189.0625 176.507812 189.261719 179.410156 188.214844 181.980469 C 186.855469 185.308594 187.066406 189.210938 189.125 192.488281 C 192.59375 198.019531 199.980469 199.652344 205.5 196.058594 C 210.847656 192.578125 212.378906 185.378906 208.910156 180.042969 " fill-opacity="1" fill-rule="nonzero"/><g clip-path="url(#id1)"><path fill="rgb(98.039246%, 71.369934%, 5.099487%)" d="M 227.402344 150.632812 C 227.402344 152.71875 225.699219 154.40625 223.597656 154.40625 C 221.5 154.40625 219.796875 152.71875 219.796875 150.632812 C 219.796875 148.550781 221.5 146.859375 223.597656 146.859375 C 225.699219 146.859375 227.402344 148.550781 227.402344 150.632812 " fill-opacity="1" fill-rule="nonzero"/></g><path fill="rgb(32.159424%, 44.309998%, 100%)" d="M 176.765625 180.699219 C 176.765625 183.828125 174.207031 186.363281 171.054688 186.363281 C 167.898438 186.363281 165.34375 183.828125 165.34375 180.699219 C 165.34375 177.566406 167.898438 175.03125 171.054688 175.03125 C 174.207031 175.03125 176.765625 177.566406 176.765625 180.699219 " fill-opacity="1" fill-rule="nonzero"/><path fill="rgb(50.588989%, 79.998779%, 16.468811%)" d="M 179.601562 127.570312 C 179.601562 130.699219 177.046875 133.238281 173.890625 133.238281 C 170.738281 133.238281 168.183594 130.699219 168.183594 127.570312 C 168.183594 124.441406 170.738281 121.902344 173.890625 121.902344 C 177.046875 121.902344 179.601562 124.441406 179.601562 127.570312 " fill-opacity="1" fill-rule="nonzero"/><g fill="rgb(100%, 100%, 100%)" fill-opacity="1"><g transform="translate(139.583981, 234.588969)"><g><path d="M 11.640625 -15.480469 L 1.097656 -15.480469 L 1.097656 -12.40625 L 4.613281 -12.40625 L 4.613281 -3.074219 L 1.097656 -3.074219 L 1.097656 0 L 11.640625 0 L 11.640625 -3.074219 L 8.125 -3.074219 L 8.125 -12.40625 L 11.640625 -12.40625 Z M 11.640625 -15.480469 "/></g></g></g><g fill="rgb(100%, 100%, 100%)" fill-opacity="1"><g transform="translate(152.314536, 234.588969)"><g><path d="M 13.132812 -3.074219 L 12.144531 -3.074219 L 8.234375 -15.480469 L 1.316406 -15.480469 L 1.316406 0 L 4.832031 0 L 4.832031 -12.40625 L 5.820312 -12.40625 L 9.726562 0 L 16.644531 0 L 16.644531 -15.480469 L 13.132812 -15.480469 Z M 13.132812 -3.074219 "/></g></g></g><g fill="rgb(100%, 100%, 100%)" fill-opacity="1"><g transform="translate(170.269011, 234.588969)"><g><path d="M 5.664062 0 L 11.375 0 L 16.625 -15.480469 L 13.066406 -15.480469 L 8.960938 -3.074219 L 8.082031 -3.074219 L 3.996094 -15.480469 L 0.4375 -15.480469 Z M 5.664062 0 "/></g></g></g><g fill="rgb(100%, 100%, 100%)" fill-opacity="1"><g transform="translate(187.323567, 234.588969)"><g><path d="M 1.097656 -7.75 C 1.097656 -3.226562 4.085938 0.21875 9.003906 0.21875 C 13.902344 0.21875 16.886719 -3.226562 16.886719 -7.75 C 16.886719 -12.253906 13.902344 -15.703125 9.003906 -15.703125 C 4.085938 -15.703125 1.097656 -12.253906 1.097656 -7.75 Z M 4.613281 -7.75 C 4.613281 -10.714844 6.082031 -12.628906 9.003906 -12.628906 C 11.925781 -12.628906 13.375 -10.714844 13.375 -7.75 C 13.375 -4.765625 11.925781 -2.855469 9.003906 -2.855469 C 6.082031 -2.855469 4.613281 -4.765625 4.613281 -7.75 Z M 4.613281 -7.75 "/></g></g></g><g fill="rgb(100%, 100%, 100%)" fill-opacity="1"><g transform="translate(205.299992, 234.588969)"><g><path d="M 11.308594 -15.480469 L 4.832031 -9.992188 L 4.832031 -15.480469 L 1.316406 -15.480469 L 1.316406 0 L 4.832031 0 L 4.832031 -5.46875 L 11.308594 0 L 16.449219 0 L 7.113281 -7.730469 L 16.449219 -15.480469 Z M 11.308594 -15.480469 "/></g></g></g><g fill="rgb(100%, 100%, 100%)" fill-opacity="1"><g transform="translate(222.17895, 234.588969)"><g><path d="M 12.363281 0 L 12.363281 -3.074219 L 4.832031 -3.074219 L 4.832031 -6.214844 L 11.265625 -6.214844 L 11.265625 -9.289062 L 4.832031 -9.289062 L 4.832031 -12.40625 L 12.363281 -12.40625 L 12.363281 -15.480469 L 1.316406 -15.480469 L 1.316406 0 Z M 12.363281 0 "/></g></g></g><g fill="rgb(100%, 100%, 100%)" fill-opacity="1"><g transform="translate(130.324661, 252.385882)"><g><path d="M 8.339844 -2.34375 C 8.339844 -4.28125 6.234375 -4.785156 4.414062 -5.351562 C 2.886719 -5.824219 2.070312 -6.179688 2.070312 -7.15625 C 2.070312 -8.183594 3.003906 -8.5 4.28125 -8.5 C 5.707031 -8.5 6.878906 -7.8125 6.878906 -6.234375 L 7.960938 -6.234375 C 7.960938 -7.75 7.023438 -9.421875 4.28125 -9.421875 C 1.988281 -9.421875 0.988281 -8.550781 0.988281 -7.128906 C 0.988281 -5.480469 2.320312 -4.980469 4.152344 -4.425781 C 5.625 -3.992188 7.261719 -3.703125 7.261719 -2.292969 C 7.261719 -1.171875 6.351562 -0.789062 4.769531 -0.789062 C 2.820312 -0.789062 1.648438 -1.277344 1.648438 -3.480469 L 0.566406 -3.480469 C 0.566406 -1.304688 1.527344 0.132812 4.769531 0.132812 C 7.511719 0.132812 8.339844 -0.960938 8.339844 -2.34375 Z M 8.339844 -2.34375 "/></g></g></g><g fill="rgb(100%, 100%, 100%)" fill-opacity="1"><g transform="translate(143.538277, 252.385882)"><g><path d="M 0.832031 -4.652344 C 0.832031 -1.9375 2.4375 0.132812 5.179688 0.132812 C 7.894531 0.132812 9.5 -1.9375 9.5 -4.652344 C 9.5 -7.351562 7.894531 -9.421875 5.179688 -9.421875 C 2.4375 -9.421875 0.832031 -7.351562 0.832031 -4.652344 Z M 1.910156 -4.652344 C 1.910156 -6.867188 2.976562 -8.5 5.179688 -8.5 C 7.367188 -8.5 8.421875 -6.867188 8.421875 -4.652344 C 8.421875 -2.425781 7.367188 -0.789062 5.179688 -0.789062 C 2.976562 -0.789062 1.910156 -2.425781 1.910156 -4.652344 Z M 1.910156 -4.652344 "/></g></g></g><g fill="rgb(100%, 100%, 100%)" fill-opacity="1"><g transform="translate(158.174451, 252.385882)"><g><path d="M 6.71875 0 L 6.71875 -0.921875 L 2.042969 -0.789062 L 2.042969 -9.289062 L 0.960938 -9.289062 L 0.960938 -0.660156 C 0.960938 -0.15625 1.25 0.144531 1.765625 0.132812 Z M 6.71875 0 "/></g></g></g><g fill="rgb(100%, 100%, 100%)" fill-opacity="1"><g transform="translate(169.636217, 252.385882)"><g><path d="M 0.699219 -3.453125 C 0.699219 -1.132812 1.84375 0.132812 4.375 0.132812 C 6.917969 0.132812 8.066406 -1.132812 8.066406 -3.453125 L 8.066406 -9.289062 L 6.984375 -9.289062 L 6.984375 -3.625 C 6.984375 -1.738281 6.3125 -0.789062 4.375 -0.789062 C 2.4375 -0.789062 1.777344 -1.738281 1.777344 -3.625 L 1.777344 -9.289062 L 0.699219 -9.289062 Z M 0.699219 -3.453125 "/></g></g></g><g fill="rgb(100%, 100%, 100%)" fill-opacity="1"><g transform="translate(182.70494, 252.385882)"><g><path d="M 0.566406 -9.289062 L 0.566406 -8.367188 L 3.808594 -8.367188 L 3.808594 0 L 4.875 0 L 4.875 -8.367188 L 8.089844 -8.367188 L 8.089844 -9.289062 Z M 0.566406 -9.289062 "/></g></g></g><g fill="rgb(100%, 100%, 100%)" fill-opacity="1"><g transform="translate(195.681458, 252.385882)"><g><path d="M 6.0625 -9.289062 L 0.832031 -9.289062 L 0.832031 -8.367188 L 2.914062 -8.367188 L 2.914062 -0.921875 L 0.832031 -0.921875 L 0.832031 0 L 6.0625 0 L 6.0625 -0.921875 L 3.992188 -0.921875 L 3.992188 -8.367188 L 6.0625 -8.367188 Z M 6.0625 -9.289062 "/></g></g></g><g fill="rgb(100%, 100%, 100%)" fill-opacity="1"><g transform="translate(206.879793, 252.385882)"><g><path d="M 0.832031 -4.652344 C 0.832031 -1.9375 2.4375 0.132812 5.179688 0.132812 C 7.894531 0.132812 9.5 -1.9375 9.5 -4.652344 C 9.5 -7.351562 7.894531 -9.421875 5.179688 -9.421875 C 2.4375 -9.421875 0.832031 -7.351562 0.832031 -4.652344 Z M 1.910156 -4.652344 C 1.910156 -6.867188 2.976562 -8.5 5.179688 -8.5 C 7.367188 -8.5 8.421875 -6.867188 8.421875 -4.652344 C 8.421875 -2.425781 7.367188 -0.789062 5.179688 -0.789062 C 2.976562 -0.789062 1.910156 -2.425781 1.910156 -4.652344 Z M 1.910156 -4.652344 "/></g></g></g><g fill="rgb(100%, 100%, 100%)" fill-opacity="1"><g transform="translate(221.515967, 252.385882)"><g><path d="M 2.042969 0 L 2.042969 -8.210938 L 1.871094 -8.761719 L 2.253906 -8.761719 L 6.800781 0 L 8.972656 0 L 8.972656 -9.289062 L 7.90625 -9.289062 L 7.90625 -1.082031 L 8.078125 -0.527344 L 7.695312 -0.527344 L 3.136719 -9.289062 L 0.960938 -9.289062 L 0.960938 0 Z M 2.042969 0 "/></g></g></g><g fill="rgb(100%, 100%, 100%)" fill-opacity="1"><g transform="translate(235.770149, 252.385882)"><g><path d="M 8.339844 -2.34375 C 8.339844 -4.28125 6.234375 -4.785156 4.414062 -5.351562 C 2.886719 -5.824219 2.070312 -6.179688 2.070312 -7.15625 C 2.070312 -8.183594 3.003906 -8.5 4.28125 -8.5 C 5.707031 -8.5 6.878906 -7.8125 6.878906 -6.234375 L 7.960938 -6.234375 C 7.960938 -7.75 7.023438 -9.421875 4.28125 -9.421875 C 1.988281 -9.421875 0.988281 -8.550781 0.988281 -7.128906 C 0.988281 -5.480469 2.320312 -4.980469 4.152344 -4.425781 C 5.625 -3.992188 7.261719 -3.703125 7.261719 -2.292969 C 7.261719 -1.171875 6.351562 -0.789062 4.769531 -0.789062 C 2.820312 -0.789062 1.648438 -1.277344 1.648438 -3.480469 L 0.566406 -3.480469 C 0.566406 -1.304688 1.527344 0.132812 4.769531 0.132812 C 7.511719 0.132812 8.339844 -0.960938 8.339844 -2.34375 Z M 8.339844 -2.34375 "/></g></g></g></svg>